<mxfile host="app.diagrams.net" agent="Mozilla/5.0 (Windows NT 10.0; Win64; x64; rv:134.0) Gecko/20100101 Firefox/134.0" version="26.0.10">
  <diagram name="Page-1" id="vEOBPSCdFxn7CFcnHFCg">
    <mxGraphModel>
      <root>
        <mxCell id="0" />
        <mxCell id="1" parent="0" />
        <mxCell id="2" value="CUSTOMER" style="shape=table;startSize=75;container=1;collapsible=0;childLayout=tableLayout;fixedRows=1;rowLines=1;fontStyle=1;align=center;resizeLast=1;" vertex="1" parent="1">
          <mxGeometry x="220" y="20" width="100" height="75" as="geometry" />
        </mxCell>
        <mxCell id="3" value="ORDER" style="shape=table;startSize=75;container=1;collapsible=0;childLayout=tableLayout;fixedRows=1;rowLines=1;fontStyle=1;align=center;resizeLast=1;" vertex="1" parent="1">
          <mxGeometry x="20" y="195" width="100" height="75" as="geometry" />
        </mxCell>
        <mxCell id="4" value="LINE-ITEM" style="shape=table;startSize=75;container=1;collapsible=0;childLayout=tableLayout;fixedRows=1;rowLines=1;fontStyle=1;align=center;resizeLast=1;" vertex="1" parent="1">
          <mxGeometry x="220" y="370" width="100" height="75" as="geometry" />
        </mxCell>
        <mxCell id="5" value="PRODUCT" style="shape=table;startSize=75;container=1;collapsible=0;childLayout=tableLayout;fixedRows=1;rowLines=1;fontStyle=1;align=center;resizeLast=1;" vertex="1" parent="1">
          <mxGeometry x="220" y="195" width="100" height="75" as="geometry" />
        </mxCell>
        <mxCell id="6" value="PAYMENT" style="shape=table;startSize=75;container=1;collapsible=0;childLayout=tableLayout;fixedRows=1;rowLines=1;fontStyle=1;align=center;resizeLast=1;" vertex="1" parent="1">
          <mxGeometry x="420" y="195" width="100" height="75" as="geometry" />
        </mxCell>
        <mxCell id="7" value="places" style="curved=1;startArrow=ERmandOne;startSize=10;;endArrow=ERzeroToMany;endSize=10;;exitX=0;exitY=0.79;entryX=0.5;entryY=0;" edge="1" parent="1" source="2" target="3">
          <mxGeometry relative="1" as="geometry">
            <Array as="points">
              <mxPoint x="70" y="145" />
            </Array>
          </mxGeometry>
        </mxCell>
        <mxCell id="8" value="contains" style="curved=1;startArrow=ERmandOne;startSize=10;;endArrow=ERoneToMany;endSize=10;;exitX=0.5;exitY=1;entryX=0;entryY=0.21;" edge="1" parent="1" source="3" target="4">
          <mxGeometry relative="1" as="geometry">
            <Array as="points">
              <mxPoint x="70" y="320" />
            </Array>
          </mxGeometry>
        </mxCell>
        <mxCell id="9" value="includes" style="curved=1;startArrow=ERmandOne;startSize=10;;endArrow=ERzeroToMany;endSize=10;;exitX=0.5;exitY=1;entryX=0.5;entryY=0;" edge="1" parent="1" source="5" target="4">
          <mxGeometry relative="1" as="geometry">
            <Array as="points" />
          </mxGeometry>
        </mxCell>
        <mxCell id="10" value="makes" style="curved=1;startArrow=ERmandOne;startSize=10;;endArrow=ERzeroToMany;endSize=10;;exitX=1;exitY=0.79;entryX=0.5;entryY=0;" edge="1" parent="1" source="2" target="6">
          <mxGeometry relative="1" as="geometry">
            <Array as="points">
              <mxPoint x="470" y="145" />
            </Array>
          </mxGeometry>
        </mxCell>
        <mxCell id="11" value="displays" style="curved=1;startArrow=ERmandOne;startSize=10;;endArrow=ERoneToMany;endSize=10;;exitX=0.5;exitY=1;entryX=1;entryY=0.21;" edge="1" parent="1" source="6" target="4">
          <mxGeometry relative="1" as="geometry">
            <Array as="points">
              <mxPoint x="470" y="320" />
            </Array>
          </mxGeometry>
        </mxCell>
      </root>
    </mxGraphModel>
  </diagram>
</mxfile>
